<svg width="125" height="125" viewBox="0 0 125 125" fill="none" xmlns="http://www.w3.org/2000/svg">
<path d="M28.6944 17.7856C31.0312 16.4848 33.4536 15.3208 35.9821 14.3051C41.3124 12.1294 46.8139 10.8872 52.4867 10.3365L58.604 16.9731L55.7615 23.8284C50.2151 24.8479 44.9909 26.801 40.1052 29.6291L39.0449 30.2384L38.0865 21.2035L28.6944 17.766V17.7856ZM26.0435 19.3949L35.7701 22.9925L36.7855 31.9025C31.5206 35.6055 27.4016 40.3437 24.4693 46.121C24.192 46.6327 23.9351 47.1405 23.7026 47.6678L16.8634 39.7148L5.69319 41.9765C8.47046 36.2149 12.2347 31.09 16.9042 26.5549C19.71 23.8479 22.7279 21.4652 25.9742 19.3949H26.0435ZM90.1042 82.175C91.1645 80.4875 92.0169 78.7805 92.7183 77.0071L103.252 89.2569L120.948 85.5968C119.924 88.2803 118.741 90.8819 117.359 93.4443C113.705 100.179 108.905 106.003 102.955 110.944C96.9026 115.971 90.0634 119.631 82.4371 121.928C82.2903 121.971 82.1394 122.01 81.9926 122.053L68.8893 111.432L72.3109 96.9833L72.5842 96.8857C80.084 93.749 85.9444 88.9053 90.1083 82.1164L90.1042 82.175ZM112.257 25.0315C113.346 26.4534 114.341 27.9377 115.32 29.4846C119.353 35.9727 122.139 42.9335 123.688 50.3396C125.173 57.6832 125.405 65.0698 124.345 72.4759C123.774 76.0384 122.962 79.5188 121.816 82.9133L104.121 86.5538L93.5217 74.2689C94.7574 69.7533 94.9042 65.0503 93.8439 60.1715C92.6082 54.3747 89.9329 49.4061 85.9362 45.3163L105.01 43.1406L112.127 25.0354L112.257 25.0315ZM4.52682 44.7226L15.9336 42.4062L22.6667 50.2537C20.5175 55.9098 20.0526 61.7691 21.117 67.851C21.3495 69.601 21.7532 71.2728 22.2426 72.8978L10.1752 70.2729L1.52933 80.0813C0.489387 75.7259 0 71.2963 0 66.7729C0 59.2067 1.46408 51.9255 4.37185 44.9022L4.45749 44.6991L4.52682 44.7226ZM23.2377 75.6282C24.9628 80.0188 27.5076 84.0304 30.8884 87.6905C33.4129 90.4756 36.2839 92.7568 39.4038 94.5459L27.426 101.12L28.0826 116.03C24.1308 113.69 20.4971 110.885 17.206 107.671C11.6596 102.198 7.4142 95.9716 4.48196 88.9327C3.67855 86.9796 3.0138 85.0265 2.44285 83.0734L11.3456 73.0619L23.4049 75.7298L23.2377 75.6282ZM41.9893 95.9091C44.5627 97.1474 47.3237 98.0849 50.2559 98.7177C56.8178 100.182 63.2369 99.9403 69.4358 97.9833L66.0386 112.346L79.0196 122.866C72.5434 124.491 65.9163 125.182 59.1383 124.959C51.2143 124.713 43.6084 123.112 36.3451 120.135C34.3916 119.342 32.5238 118.467 30.6968 117.495L30.0402 102.479L41.9893 95.9091ZM110.43 22.7269L103.297 40.8984L83.628 43.1523C83.0529 42.6835 82.482 42.2148 81.8621 41.8281C75.4063 37.1289 68.143 34.4024 60.0966 33.6095C58.2043 33.4689 56.4222 33.4689 54.6971 33.4689L61.5607 16.6606L46.7364 0.488997C51.2184 0.0202561 55.631 -0.0422428 60.0966 0.0202561C62.772 0.102286 65.4024 0.285876 68.041 0.610089C71.7318 1.07883 75.3655 1.84835 78.9747 2.80927C86.6255 4.88735 93.5911 8.18026 99.8756 12.8599C103.844 15.7661 107.351 19.0629 110.43 22.723V22.7269Z" fill="#FF6501"/>
</svg>
