<svg width="128" height="128" viewBox="0 0 128 128" fill="none" xmlns="http://www.w3.org/2000/svg">
<circle cx="64" cy="64" r="63.95" fill="white" stroke="black" stroke-width="0.1"/>
<path d="M51.7264 37.4294C32.385 40.2945 25.3055 59.7494 24.1835 69.1186C24.0699 69.9637 17.0156 76.402 19.1145 61.9759C22.7578 41.8356 33.0476 34.4518 33.3772 34.1385C41.9905 25.9499 61.9299 22.8513 73.923 30.146C95.3536 45.3656 85.4471 66.4024 81.6651 69.1186C77.8832 71.8348 73.3686 70.8489 74.9131 66.4024C80.5365 57.1069 75.9031 33.8481 51.7264 37.4294Z" fill="#183D54"/>
<path d="M91.6347 65.2066C99.6781 47.1051 87.3609 30.5645 80.197 24.5568C79.5574 24.0043 78.0193 14.497 88.8499 24.065C103.586 38.0332 104.165 50.8198 104.248 51.2707C106.397 63.0557 98.2255 81.7948 85.7166 88.1324C61.5531 98.2804 49.4472 78.4673 49.2324 73.7664C49.0176 69.0655 52.267 65.7317 55.1218 69.4492C59.7998 79.2707 81.5805 87.8333 91.6347 65.2066Z" fill="#F5732A"/>
<path d="M48.4682 84.148C60.6357 99.6914 80.744 96.1205 89.2771 92.3922C90.053 92.0667 99.0779 95.0225 85.7524 100.437C66.7899 107.37 55.333 102.049 54.9008 101.917C43.6028 98.473 30.9359 82.5219 31.1063 68.32C33.2691 41.8434 56.1451 39.9593 60.358 41.914C64.5709 43.8686 66.0036 48.3291 61.4447 49.2099C50.7097 48.9482 33.2588 64.7187 48.4682 84.148Z" fill="#F5732A"/>
</svg>
