<svg width="802" height="769" viewBox="0 0 802 769" fill="none" xmlns="http://www.w3.org/2000/svg">
<rect width="802" height="769" fill="white"/>
<path d="M419.329 382.618L439.829 451.368C565.996 414.702 806.63 309.118 704.83 152.118C603.03 -4.88192 372.621 21.2932 233.579 134.868C94.5362 248.443 -48.8796 533.869 212.829 685.119C352.246 765.693 550.762 688.654 660.08 602.619C769.399 516.584 766.173 357.727 737 382.618C634 470.5 528.5 497.5 459 517.5L467.329 578.619L247 526L419.329 382.618Z" fill="#183D54" stroke="#F5732A" stroke-width="35"/>
<path d="M329 316C442.225 307.769 652.277 262.205 545.703 172.441C468.495 107.411 360.244 228.525 329 316Z" fill="white" stroke="#F5732A" stroke-width="35"/>
</svg>
