<svg width="256" height="256" viewBox="0 0 256 256" fill="none" xmlns="http://www.w3.org/2000/svg">
<path d="M58.766 36.4248C63.5518 33.7609 68.513 31.3769 73.6914 29.2969C84.6077 24.841 95.8748 22.2971 107.493 21.1691L120.021 34.7608L114.2 48.8006C102.841 50.8885 92.1414 54.8885 82.1355 60.6804L79.9639 61.9283L78.0011 43.4247L58.766 36.3848V36.4248ZM53.3371 39.7208L73.2571 47.0886L75.3368 65.3363C64.5541 72.9201 56.1184 82.624 50.1132 94.4557C49.5452 95.5037 49.019 96.5437 48.5429 97.6237L34.5363 81.336L11.6597 85.9679C17.3475 74.1681 25.0566 63.6723 34.6198 54.3845C40.3661 48.8406 46.5468 43.9607 53.1951 39.7208H53.3371ZM184.533 168.294C186.705 164.838 188.451 161.343 189.887 157.711L211.461 182.798L247.701 175.302C245.605 180.798 243.182 186.126 240.351 191.374C232.867 205.166 223.037 217.093 210.851 227.213C198.456 237.509 184.45 245.005 168.831 249.709C168.531 249.797 168.222 249.877 167.921 249.965L141.085 228.213L148.093 198.622L148.652 198.422C164.012 191.998 176.014 182.078 184.542 168.174L184.533 168.294ZM229.902 51.2645C232.132 54.1765 234.17 57.2164 236.175 60.3844C244.435 73.6721 250.14 87.9279 253.314 103.096C256.354 118.135 256.83 133.263 254.658 148.431C253.489 155.727 251.827 162.854 249.48 169.806L213.24 177.262L191.532 152.103C194.063 142.855 194.364 133.223 192.192 123.231C189.662 111.359 184.183 101.184 175.997 92.8078L215.061 88.3519L229.635 51.2725L229.902 51.2645ZM9.27093 91.5918L32.632 86.8479L46.4215 102.92C42.0199 114.503 41.0677 126.503 43.2477 138.959C43.7237 142.543 44.5506 145.967 45.5529 149.295L20.8387 143.919L3.13207 164.006C1.00226 155.087 0 146.015 0 136.751C0 121.255 2.99844 106.344 8.95355 91.9598L9.12895 91.5438L9.27093 91.5918ZM47.5908 154.887C51.1238 163.878 56.3355 172.094 63.2595 179.59C68.4295 185.294 74.3095 189.966 80.6989 193.63L56.1685 207.094L57.5132 237.629C49.4199 232.837 41.9781 227.093 35.2379 220.509C23.8789 209.302 15.1843 196.55 9.17906 182.134C7.53368 178.134 6.17227 174.134 5.00296 170.134L23.2358 149.631L47.9332 155.095L47.5908 154.887ZM85.9942 196.422C91.2644 198.958 96.9188 200.878 102.924 202.174C116.363 205.174 129.509 204.678 142.204 200.67L135.247 230.085L161.832 251.629C148.569 254.957 134.996 256.373 121.115 255.917C104.887 255.413 89.31 252.133 74.4347 246.037C70.434 244.413 66.6087 242.621 62.867 240.629L61.5223 209.878L85.9942 196.422ZM226.161 46.5446L211.553 83.7599L171.27 88.3758C170.092 87.4159 168.923 86.4559 167.654 85.6639C154.432 76.0401 139.557 70.4562 123.078 68.8322C119.202 68.5442 115.553 68.5442 112.02 68.5442L126.076 34.1209L95.7161 1.00147C104.895 0.0414845 113.932 -0.0865132 123.078 0.0414845C128.557 0.209481 133.944 0.585474 139.348 1.24946C146.907 2.20944 154.349 3.78542 161.74 5.75338C177.409 10.0093 191.674 16.7532 204.545 26.337C212.672 32.2889 219.855 39.0408 226.161 46.5366V46.5446Z" fill="#FF6501"/>
</svg>
