<svg width="190" height="37" viewBox="0 0 190 37" fill="none" xmlns="http://www.w3.org/2000/svg">
<path d="M7.036 9.55319C7.609 9.22019 8.203 8.92219 8.823 8.66219C10.13 8.10519 11.479 7.78719 12.87 7.64619L14.37 9.34519L13.673 11.1002C12.313 11.3612 11.032 11.8612 9.834 12.5852L9.574 12.7412L9.339 10.4282L7.036 9.54819V9.55319ZM6.386 9.96519L8.771 10.8862L9.02 13.1672C7.729 14.1152 6.719 15.3282 6 16.8072C5.932 16.9382 5.869 17.0682 5.812 17.2032L4.135 15.1672L1.396 15.7462C2.077 14.2712 3 12.9592 4.145 11.7982C4.833 11.1052 5.573 10.4952 6.369 9.96519H6.386ZM22.094 26.0372C22.354 25.6052 22.563 25.1682 22.735 24.7142L25.318 27.8502L29.657 26.9132C29.406 27.6002 29.116 28.2662 28.777 28.9222C27.881 30.6462 26.704 32.1372 25.245 33.4022C23.761 34.6892 22.084 35.6262 20.214 36.2142C20.178 36.2252 20.141 36.2352 20.105 36.2462L16.892 33.5272L17.731 29.8282L17.798 29.8032C19.637 29.0002 21.074 27.7602 22.095 26.0222L22.094 26.0372ZM27.526 11.4082C27.793 11.7722 28.037 12.1522 28.277 12.5482C29.266 14.2092 29.949 15.9912 30.329 17.8872C30.693 19.7672 30.75 21.6582 30.49 23.5542C30.35 24.4662 30.151 25.3572 29.87 26.2262L25.531 27.1582L22.932 24.0132C23.235 22.8572 23.271 21.6532 23.011 20.4042C22.708 18.9202 22.052 17.6482 21.072 16.6012L25.749 16.0442L27.494 11.4092L27.526 11.4082ZM1.11 16.4492L3.907 15.8562L5.558 17.8652C5.031 19.3132 4.917 20.8132 5.178 22.3702C5.235 22.8182 5.334 23.2462 5.454 23.6622L2.495 22.9902L0.375 25.5012C0.12 24.3862 0 23.2522 0 22.0942C0 20.1572 0.359 18.2932 1.072 16.4952L1.093 16.4432L1.11 16.4492ZM5.698 24.3612C6.121 25.4852 6.745 26.5122 7.574 27.4492C8.193 28.1622 8.897 28.7462 9.662 29.2042L6.725 30.8872L6.886 34.7042C5.917 34.1052 5.026 33.3872 4.219 32.5642C2.859 31.1632 1.818 29.5692 1.099 27.7672C0.902 27.2672 0.739 26.7672 0.599 26.2672L2.782 23.7042L5.739 24.3872L5.698 24.3612ZM10.296 29.5532C10.927 29.8702 11.604 30.1102 12.323 30.2722C13.932 30.6472 15.506 30.5852 17.026 30.0842L16.193 33.7612L19.376 36.4542C17.788 36.8702 16.163 37.0472 14.501 36.9902C12.558 36.9272 10.693 36.5172 8.912 35.7552C8.433 35.5522 7.975 35.3282 7.527 35.0792L7.366 31.2352L10.296 29.5532ZM27.078 10.8182L25.329 15.4702L20.506 16.0472C20.365 15.9272 20.225 15.8072 20.073 15.7082C18.49 14.5052 16.709 13.8072 14.736 13.6042C14.272 13.5682 13.835 13.5682 13.412 13.5682L15.095 9.26519L11.46 5.12519C12.559 5.00519 13.641 4.98919 14.736 5.00519C15.392 5.02619 16.037 5.07319 16.684 5.15619C17.589 5.27619 18.48 5.47319 19.365 5.71919C21.241 6.25119 22.949 7.09419 24.49 8.29219C25.463 9.03619 26.323 9.88019 27.078 10.8172V10.8182Z" fill="#FF6501"/>
<path d="M48.18 30.36C46.68 30.36 45.35 30.04 44.19 29.4C43.03 28.76 42.12 27.86 41.46 26.7C40.8 25.54 40.47 24.2 40.47 22.68C40.47 21.14 40.79 19.77 41.43 18.57C42.09 17.37 42.99 16.44 44.13 15.78C45.29 15.1 46.65 14.76 48.21 14.76C49.67 14.76 50.96 15.08 52.08 15.72C53.2 16.36 54.07 17.24 54.69 18.36C55.33 19.46 55.65 20.69 55.65 22.05C55.65 22.27 55.64 22.5 55.62 22.74C55.62 22.98 55.61 23.23 55.59 23.49H44.28C44.36 24.65 44.76 25.56 45.48 26.22C46.22 26.88 47.11 27.21 48.15 27.21C48.93 27.21 49.58 27.04 50.1 26.7C50.64 26.34 51.04 25.88 51.3 25.32H55.2C54.92 26.26 54.45 27.12 53.79 27.9C53.15 28.66 52.35 29.26 51.39 29.7C50.45 30.14 49.38 30.36 48.18 30.36ZM48.21 17.88C47.27 17.88 46.44 18.15 45.72 18.69C45 19.21 44.54 20.01 44.34 21.09H51.75C51.69 20.11 51.33 19.33 50.67 18.75C50.01 18.17 49.19 17.88 48.21 17.88ZM62.3138 30L56.8538 15.12H60.8738L64.6538 26.37L68.4338 15.12H72.4538L66.9638 30H62.3138ZM81.3734 30.36C79.8734 30.36 78.5434 30.04 77.3834 29.4C76.2234 28.76 75.3134 27.86 74.6534 26.7C73.9934 25.54 73.6634 24.2 73.6634 22.68C73.6634 21.14 73.9834 19.77 74.6234 18.57C75.2834 17.37 76.1834 16.44 77.3234 15.78C78.4834 15.1 79.8434 14.76 81.4034 14.76C82.8634 14.76 84.1534 15.08 85.2734 15.72C86.3934 16.36 87.2634 17.24 87.8834 18.36C88.5234 19.46 88.8434 20.69 88.8434 22.05C88.8434 22.27 88.8334 22.5 88.8134 22.74C88.8134 22.98 88.8034 23.23 88.7834 23.49H77.4734C77.5534 24.65 77.9534 25.56 78.6734 26.22C79.4134 26.88 80.3034 27.21 81.3434 27.21C82.1234 27.21 82.7734 27.04 83.2934 26.7C83.8334 26.34 84.2334 25.88 84.4934 25.32H88.3934C88.1134 26.26 87.6434 27.12 86.9834 27.9C86.3434 28.66 85.5434 29.26 84.5834 29.7C83.6434 30.14 82.5734 30.36 81.3734 30.36ZM81.4034 17.88C80.4634 17.88 79.6334 18.15 78.9134 18.69C78.1934 19.21 77.7334 20.01 77.5334 21.09H84.9434C84.8834 20.11 84.5234 19.33 83.8634 18.75C83.2034 18.17 82.3834 17.88 81.4034 17.88ZM92.073 30V15.12H95.463L95.763 17.64C96.223 16.76 96.883 16.06 97.743 15.54C98.623 15.02 99.653 14.76 100.833 14.76C102.673 14.76 104.103 15.34 105.123 16.5C106.143 17.66 106.653 19.36 106.653 21.6V30H102.813V21.96C102.813 20.68 102.553 19.7 102.033 19.02C101.513 18.34 100.703 18 99.603 18C98.523 18 97.633 18.38 96.933 19.14C96.253 19.9 95.913 20.96 95.913 22.32V30H92.073ZM116.955 30C115.395 30 114.145 29.62 113.205 28.86C112.265 28.1 111.795 26.75 111.795 24.81V18.33H109.245V15.12H111.795L112.245 11.13H115.635V15.12H119.655V18.33H115.635V24.84C115.635 25.56 115.785 26.06 116.085 26.34C116.405 26.6 116.945 26.73 117.705 26.73H119.565V30H116.955ZM128.532 30.36C126.672 30.36 125.232 29.78 124.212 28.62C123.212 27.46 122.712 25.76 122.712 23.52V15.12H126.522V23.16C126.522 24.44 126.782 25.42 127.302 26.1C127.822 26.78 128.642 27.12 129.762 27.12C130.822 27.12 131.692 26.74 132.372 25.98C133.072 25.22 133.422 24.16 133.422 22.8V15.12H137.262V30H133.872L133.572 27.48C133.112 28.36 132.442 29.06 131.562 29.58C130.702 30.1 129.692 30.36 128.532 30.36ZM146.334 30.36C145.054 30.36 144.004 30.16 143.184 29.76C142.364 29.34 141.754 28.79 141.354 28.11C140.954 27.43 140.754 26.68 140.754 25.86C140.754 24.48 141.294 23.36 142.374 22.5C143.454 21.64 145.074 21.21 147.234 21.21H151.014V20.85C151.014 19.83 150.724 19.08 150.144 18.6C149.564 18.12 148.844 17.88 147.984 17.88C147.204 17.88 146.524 18.07 145.944 18.45C145.364 18.81 145.004 19.35 144.864 20.07H141.114C141.214 18.99 141.574 18.05 142.194 17.25C142.834 16.45 143.654 15.84 144.654 15.42C145.654 14.98 146.774 14.76 148.014 14.76C150.134 14.76 151.804 15.29 153.024 16.35C154.244 17.41 154.854 18.91 154.854 20.85V30H151.584L151.224 27.6C150.784 28.4 150.164 29.06 149.364 29.58C148.584 30.1 147.574 30.36 146.334 30.36ZM147.204 27.36C148.304 27.36 149.154 27 149.754 26.28C150.374 25.56 150.764 24.67 150.924 23.61H147.654C146.634 23.61 145.904 23.8 145.464 24.18C145.024 24.54 144.804 24.99 144.804 25.53C144.804 26.11 145.024 26.56 145.464 26.88C145.904 27.2 146.484 27.36 147.204 27.36ZM158.518 30V8.4H162.358V30H158.518Z" fill="#0C1D37"/>
</svg>
